<svg xmlns="http://www.w3.org/2000/svg" version="1.1" xmlns:xlink="http://www.w3.org/1999/xlink" xmlns:svgjs="http://svgjs.dev/svgjs" width="1440" height="560" preserveAspectRatio="none" viewBox="0 0 1440 560"><g mask="url(&quot;#SvgjsMask1015&quot;)" fill="none"><rect width="1440" height="560" x="0" y="0" fill="rgba(24, 89, 156, 0.92)"></rect><path d="M1377 403L1376 684" stroke-width="10" stroke="url(&quot;#SvgjsLinearGradient1016&quot;)" stroke-linecap="round" class="Up"></path><path d="M282 428L281 602" stroke-width="8" stroke="url(&quot;#SvgjsLinearGradient1016&quot;)" stroke-linecap="round" class="Up"></path><path d="M1229 498L1228 166" stroke-width="10" stroke="url(&quot;#SvgjsLinearGradient1016&quot;)" stroke-linecap="round" class="Up"></path><path d="M684 217L683 452" stroke-width="10" stroke="url(&quot;#SvgjsLinearGradient1017&quot;)" stroke-linecap="round" class="Down"></path><path d="M384 231L383 569" stroke-width="6" stroke="url(&quot;#SvgjsLinearGradient1016&quot;)" stroke-linecap="round" class="Up"></path><path d="M1106 331L1105 -31" stroke-width="6" stroke="url(&quot;#SvgjsLinearGradient1016&quot;)" stroke-linecap="round" class="Up"></path><path d="M38 105L37 376" stroke-width="6" stroke="url(&quot;#SvgjsLinearGradient1017&quot;)" stroke-linecap="round" class="Down"></path><path d="M927 452L926 677" stroke-width="8" stroke="url(&quot;#SvgjsLinearGradient1017&quot;)" stroke-linecap="round" class="Down"></path><path d="M708 397L707 234" stroke-width="10" stroke="url(&quot;#SvgjsLinearGradient1016&quot;)" stroke-linecap="round" class="Up"></path><path d="M4 363L3 734" stroke-width="6" stroke="url(&quot;#SvgjsLinearGradient1017&quot;)" stroke-linecap="round" class="Down"></path><path d="M15 256L14 515" stroke-width="6" stroke="url(&quot;#SvgjsLinearGradient1017&quot;)" stroke-linecap="round" class="Down"></path><path d="M765 208L764 -164" stroke-width="8" stroke="url(&quot;#SvgjsLinearGradient1016&quot;)" stroke-linecap="round" class="Up"></path><path d="M894 259L893 107" stroke-width="10" stroke="url(&quot;#SvgjsLinearGradient1016&quot;)" stroke-linecap="round" class="Up"></path><path d="M53 328L52 633" stroke-width="10" stroke="url(&quot;#SvgjsLinearGradient1016&quot;)" stroke-linecap="round" class="Up"></path><path d="M252 234L251 -32" stroke-width="10" stroke="url(&quot;#SvgjsLinearGradient1016&quot;)" stroke-linecap="round" class="Up"></path><path d="M200 411L199 256" stroke-width="6" stroke="url(&quot;#SvgjsLinearGradient1016&quot;)" stroke-linecap="round" class="Up"></path><path d="M1052 555L1051 853" stroke-width="8" stroke="url(&quot;#SvgjsLinearGradient1017&quot;)" stroke-linecap="round" class="Down"></path><path d="M1213 81L1212 -85" stroke-width="10" stroke="url(&quot;#SvgjsLinearGradient1017&quot;)" stroke-linecap="round" class="Down"></path><path d="M555 12L554 -137" stroke-width="10" stroke="url(&quot;#SvgjsLinearGradient1017&quot;)" stroke-linecap="round" class="Down"></path><path d="M531 353L530 -31" stroke-width="6" stroke="url(&quot;#SvgjsLinearGradient1016&quot;)" stroke-linecap="round" class="Up"></path><path d="M165 418L164 585" stroke-width="10" stroke="url(&quot;#SvgjsLinearGradient1016&quot;)" stroke-linecap="round" class="Up"></path><path d="M448 463L447 195" stroke-width="10" stroke="url(&quot;#SvgjsLinearGradient1017&quot;)" stroke-linecap="round" class="Down"></path><path d="M207 27L206 230" stroke-width="8" stroke="url(&quot;#SvgjsLinearGradient1017&quot;)" stroke-linecap="round" class="Down"></path><path d="M657 474L656 246" stroke-width="10" stroke="url(&quot;#SvgjsLinearGradient1016&quot;)" stroke-linecap="round" class="Up"></path><path d="M384 320L383 126" stroke-width="10" stroke="url(&quot;#SvgjsLinearGradient1016&quot;)" stroke-linecap="round" class="Up"></path><path d="M1360 137L1359 -112" stroke-width="6" stroke="url(&quot;#SvgjsLinearGradient1017&quot;)" stroke-linecap="round" class="Down"></path><path d="M1163 104L1162 -56" stroke-width="8" stroke="url(&quot;#SvgjsLinearGradient1016&quot;)" stroke-linecap="round" class="Up"></path><path d="M973 21L972 -213" stroke-width="6" stroke="url(&quot;#SvgjsLinearGradient1017&quot;)" stroke-linecap="round" class="Down"></path><path d="M849 274L848 95" stroke-width="6" stroke="url(&quot;#SvgjsLinearGradient1016&quot;)" stroke-linecap="round" class="Up"></path><path d="M210 359L209 769" stroke-width="10" stroke="url(&quot;#SvgjsLinearGradient1016&quot;)" stroke-linecap="round" class="Up"></path><path d="M588 43L587 343" stroke-width="8" stroke="url(&quot;#SvgjsLinearGradient1017&quot;)" stroke-linecap="round" class="Down"></path><path d="M238 98L237 496" stroke-width="8" stroke="url(&quot;#SvgjsLinearGradient1016&quot;)" stroke-linecap="round" class="Up"></path><path d="M160 114L159 -137" stroke-width="6" stroke="url(&quot;#SvgjsLinearGradient1016&quot;)" stroke-linecap="round" class="Up"></path><path d="M705 102L704 313" stroke-width="6" stroke="url(&quot;#SvgjsLinearGradient1017&quot;)" stroke-linecap="round" class="Down"></path><path d="M835 239L834 481" stroke-width="6" stroke="url(&quot;#SvgjsLinearGradient1017&quot;)" stroke-linecap="round" class="Down"></path><path d="M293 495L292 351" stroke-width="10" stroke="url(&quot;#SvgjsLinearGradient1017&quot;)" stroke-linecap="round" class="Down"></path></g><defs><mask id="SvgjsMask1015"><rect width="1440" height="560" fill="#ffffff"></rect></mask><linearGradient x1="0%" y1="100%" x2="0%" y2="0%" id="SvgjsLinearGradient1016"><stop stop-color="rgba(216, 222, 230, 0)" offset="0"></stop><stop stop-color="rgba(216, 222, 230, 1)" offset="1"></stop></linearGradient><linearGradient x1="0%" y1="0%" x2="0%" y2="100%" id="SvgjsLinearGradient1017"><stop stop-color="rgba(216, 222, 230, 0)" offset="0"></stop><stop stop-color="rgba(216, 222, 230, 1)" offset="1"></stop></linearGradient></defs></svg>