<svg xmlns="http://www.w3.org/2000/svg" version="1.1" xmlns:xlink="http://www.w3.org/1999/xlink" xmlns:svgjs="http://svgjs.dev/svgjs" width="1440" height="560" preserveAspectRatio="none" viewBox="0 0 1440 560"><g mask="url(&quot;#SvgjsMask1001&quot;)" fill="none"><rect width="1440" height="560" x="0" y="0" fill="rgba(52, 102, 154, 1)"></rect><path d="M 0,160 C 57.6,148.8 172.8,96 288,104 C 403.2,112 460.8,211 576,200 C 691.2,189 748.8,54.8 864,49 C 979.2,43.2 1036.8,153.6 1152,171 C 1267.2,188.4 1382.4,143 1440,136L1440 560L0 560z" fill="#184a7e"></path><path d="M 0,311 C 96,356.4 288,516.4 480,538 C 672,559.6 768,418 960,419 C 1152,420 1344,518.2 1440,543L1440 560L0 560z" fill="#2264ab"></path></g><defs><mask id="SvgjsMask1001"><rect width="1440" height="560" fill="#ffffff"></rect></mask></defs></svg>